<?xml version="1.0" encoding="iso-8859-1"?>
<!-- Generator: Adobe Illustrator 19.0.0, SVG Export Plug-In . SVG Version: 6.00 Build 0)  -->
<svg version="1.1" id="Layer_1" xmlns="http://www.w3.org/2000/svg" xmlns:xlink="http://www.w3.org/1999/xlink" x="0px" y="0px"
	 viewBox="0 0 512 512" style="enable-background:new 0 0 512 512;" xml:space="preserve">
<g>
	<g>
		<path d="M423.619,329.143V0h-18.286c-96.857,0-186.15,40.765-251.429,114.786c-15.259,17.301-28.859,35.975-40.721,55.881H15.238
			v36.571h78.758c-1.847,4.023-3.625,8.087-5.342,12.19H39.619V256h35.778c-11.602,37.614-17.492,76.462-17.492,115.81
			c0,44.425,8.287,87.719,24.63,128.681L87.127,512h409.635V329.143H423.619z M313.905,475.429H112.172
			c-11.748-33.198-17.696-67.997-17.696-103.619c0-38.729,6.867-78.195,19.951-115.81h95.859v-36.571h-80.879
			c1.944-4.098,3.962-8.165,6.061-12.19h50.437v-36.571h-28.476c50.46-73.576,129.33-127.67,229.619-133.561v292.038h-73.143
			V475.429z M460.19,475.429h-54.857h-54.857V365.714H460.19V475.429z"/>
	</g>
</g>
<g>
</g>
<g>
</g>
<g>
</g>
<g>
</g>
<g>
</g>
<g>
</g>
<g>
</g>
<g>
</g>
<g>
</g>
<g>
</g>
<g>
</g>
<g>
</g>
<g>
</g>
<g>
</g>
<g>
</g>
</svg>
